<mxfile host="Electron" agent="Mozilla/5.0 (Macintosh; Intel Mac OS X 10_15_7) AppleWebKit/537.36 (KHTML, like Gecko) draw.io/26.0.16 Chrome/132.0.6834.196 Electron/34.2.0 Safari/537.36" version="26.0.16">
  <diagram name="Page-1" id="ae6u4fqy5IGBjBVJQrrh">
    <mxGraphModel dx="2054" dy="828" grid="1" gridSize="10" guides="1" tooltips="1" connect="1" arrows="1" fold="1" page="1" pageScale="1" pageWidth="827" pageHeight="1169" math="0" shadow="0">
      <root>
        <mxCell id="0" />
        <mxCell id="1" parent="0" />
        <mxCell id="FykFyGAP03CBxtwc1oIk-1" value="PROXMOX Fulcrum" style="swimlane;whiteSpace=wrap;html=1;" vertex="1" parent="1">
          <mxGeometry x="250" y="90" width="630" height="470" as="geometry" />
        </mxCell>
        <mxCell id="FykFyGAP03CBxtwc1oIk-3" value="Fulcrum Core DB&lt;div&gt;172.30.232.241&lt;/div&gt;" style="shape=cylinder3;whiteSpace=wrap;html=1;boundedLbl=1;backgroundOutline=1;size=15;" vertex="1" parent="FykFyGAP03CBxtwc1oIk-1">
          <mxGeometry x="95" y="280" width="130" height="130" as="geometry" />
        </mxCell>
        <mxCell id="FykFyGAP03CBxtwc1oIk-4" value="&lt;span style=&quot;font-weight: 400;&quot;&gt;VM Fulcrum Core&amp;nbsp;&lt;/span&gt;&lt;span style=&quot;background-color: transparent; color: light-dark(rgb(0, 0, 0), rgb(255, 255, 255)); font-weight: 400;&quot;&gt;172.30.232.240&lt;/span&gt;" style="swimlane;whiteSpace=wrap;html=1;" vertex="1" parent="FykFyGAP03CBxtwc1oIk-1">
          <mxGeometry x="60" y="40" width="200" height="200" as="geometry" />
        </mxCell>
        <mxCell id="FykFyGAP03CBxtwc1oIk-2" value="Fulcrum Core" style="rounded=0;whiteSpace=wrap;html=1;" vertex="1" parent="FykFyGAP03CBxtwc1oIk-4">
          <mxGeometry x="50" y="110" width="100" height="45" as="geometry" />
        </mxCell>
        <mxCell id="FykFyGAP03CBxtwc1oIk-7" style="edgeStyle=orthogonalEdgeStyle;rounded=0;orthogonalLoop=1;jettySize=auto;html=1;" edge="1" parent="FykFyGAP03CBxtwc1oIk-4" source="FykFyGAP03CBxtwc1oIk-5" target="FykFyGAP03CBxtwc1oIk-2">
          <mxGeometry relative="1" as="geometry" />
        </mxCell>
        <mxCell id="FykFyGAP03CBxtwc1oIk-5" value="Kub Agent" style="rounded=0;whiteSpace=wrap;html=1;strokeWidth=3;" vertex="1" parent="FykFyGAP03CBxtwc1oIk-4">
          <mxGeometry x="50" y="40" width="100" height="45" as="geometry" />
        </mxCell>
        <mxCell id="FykFyGAP03CBxtwc1oIk-6" style="edgeStyle=orthogonalEdgeStyle;rounded=0;orthogonalLoop=1;jettySize=auto;html=1;" edge="1" parent="FykFyGAP03CBxtwc1oIk-1" source="FykFyGAP03CBxtwc1oIk-2" target="FykFyGAP03CBxtwc1oIk-3">
          <mxGeometry relative="1" as="geometry" />
        </mxCell>
        <mxCell id="FykFyGAP03CBxtwc1oIk-11" value="Kamaji Kub&lt;div&gt;Nodi 172.30.232.61-63&lt;/div&gt;&lt;div&gt;Bilanciato .64&lt;/div&gt;" style="swimlane;whiteSpace=wrap;html=1;startSize=80;" vertex="1" parent="FykFyGAP03CBxtwc1oIk-1">
          <mxGeometry x="400" y="60" width="200" height="200" as="geometry" />
        </mxCell>
        <mxCell id="FykFyGAP03CBxtwc1oIk-12" value="Tenant Kubernetes" style="rounded=0;whiteSpace=wrap;html=1;" vertex="1" parent="FykFyGAP03CBxtwc1oIk-11">
          <mxGeometry x="40" y="100" width="120" height="60" as="geometry" />
        </mxCell>
        <mxCell id="FykFyGAP03CBxtwc1oIk-14" style="edgeStyle=orthogonalEdgeStyle;rounded=0;orthogonalLoop=1;jettySize=auto;html=1;fontColor=#000000;strokeWidth=4;strokeColor=#FF0000;" edge="1" parent="FykFyGAP03CBxtwc1oIk-1" source="FykFyGAP03CBxtwc1oIk-5" target="FykFyGAP03CBxtwc1oIk-11">
          <mxGeometry relative="1" as="geometry" />
        </mxCell>
        <mxCell id="FykFyGAP03CBxtwc1oIk-15" value="Admin Tenant Kub" style="edgeLabel;html=1;align=center;verticalAlign=middle;resizable=0;points=[];" vertex="1" connectable="0" parent="FykFyGAP03CBxtwc1oIk-14">
          <mxGeometry x="0.297" y="3" relative="1" as="geometry">
            <mxPoint as="offset" />
          </mxGeometry>
        </mxCell>
        <mxCell id="FykFyGAP03CBxtwc1oIk-22" style="edgeStyle=orthogonalEdgeStyle;rounded=0;orthogonalLoop=1;jettySize=auto;html=1;" edge="1" parent="FykFyGAP03CBxtwc1oIk-1" source="FykFyGAP03CBxtwc1oIk-21" target="FykFyGAP03CBxtwc1oIk-11">
          <mxGeometry relative="1" as="geometry" />
        </mxCell>
        <mxCell id="FykFyGAP03CBxtwc1oIk-21" value="Boostrap&lt;div&gt;172.30.232.60&lt;/div&gt;" style="rounded=0;whiteSpace=wrap;html=1;" vertex="1" parent="FykFyGAP03CBxtwc1oIk-1">
          <mxGeometry x="440" y="340" width="120" height="60" as="geometry" />
        </mxCell>
        <mxCell id="FykFyGAP03CBxtwc1oIk-27" value="1) Cre&lt;span style=&quot;background-color: transparent; color: light-dark(rgb(0, 0, 0), rgb(255, 255, 255));&quot;&gt;o Kub Tenant (token)&lt;/span&gt;" style="text;html=1;align=left;verticalAlign=middle;whiteSpace=wrap;rounded=0;fontStyle=1" vertex="1" parent="FykFyGAP03CBxtwc1oIk-1">
          <mxGeometry x="290" y="180" width="130" height="30" as="geometry" />
        </mxCell>
        <mxCell id="FykFyGAP03CBxtwc1oIk-8" value="PROXMOX CSP (o OpiHub)&lt;div&gt;Nodi 172.30.232.90-91&lt;/div&gt;" style="swimlane;whiteSpace=wrap;html=1;startSize=70;" vertex="1" parent="1">
          <mxGeometry x="-110" y="170" width="330" height="470" as="geometry" />
        </mxCell>
        <mxCell id="FykFyGAP03CBxtwc1oIk-9" value="VM Kub Worker N" style="rounded=0;whiteSpace=wrap;html=1;" vertex="1" parent="FykFyGAP03CBxtwc1oIk-8">
          <mxGeometry x="60" y="110" width="120" height="60" as="geometry" />
        </mxCell>
        <mxCell id="FykFyGAP03CBxtwc1oIk-17" value="&lt;span style=&quot;font-weight: 700;&quot;&gt;VM Agent PHP&lt;/span&gt;" style="rounded=0;whiteSpace=wrap;html=1;" vertex="1" parent="FykFyGAP03CBxtwc1oIk-8">
          <mxGeometry x="60" y="230" width="120" height="60" as="geometry" />
        </mxCell>
        <mxCell id="FykFyGAP03CBxtwc1oIk-20" value="VM N" style="rounded=0;whiteSpace=wrap;html=1;" vertex="1" parent="FykFyGAP03CBxtwc1oIk-8">
          <mxGeometry x="60" y="320" width="120" height="60" as="geometry" />
        </mxCell>
        <mxCell id="FykFyGAP03CBxtwc1oIk-28" value="2) Cre&lt;span style=&quot;background-color: transparent; color: light-dark(rgb(0, 0, 0), rgb(255, 255, 255));&quot;&gt;o VM Worker&lt;/span&gt;" style="text;html=1;align=left;verticalAlign=middle;whiteSpace=wrap;rounded=0;fontStyle=1" vertex="1" parent="FykFyGAP03CBxtwc1oIk-8">
          <mxGeometry x="180" y="110" width="130" height="30" as="geometry" />
        </mxCell>
        <mxCell id="FykFyGAP03CBxtwc1oIk-10" value="Admin VM Worker" style="edgeStyle=orthogonalEdgeStyle;rounded=0;orthogonalLoop=1;jettySize=auto;html=1;fontColor=#000000;strokeWidth=4;strokeColor=#FF0000;" edge="1" parent="1" source="FykFyGAP03CBxtwc1oIk-5" target="FykFyGAP03CBxtwc1oIk-8">
          <mxGeometry x="-0.036" y="-20" relative="1" as="geometry">
            <Array as="points">
              <mxPoint x="200" y="193" />
              <mxPoint x="200" y="310" />
            </Array>
            <mxPoint y="1" as="offset" />
          </mxGeometry>
        </mxCell>
        <mxCell id="FykFyGAP03CBxtwc1oIk-13" value="&lt;ul&gt;&lt;li&gt;bilancito klived&lt;/li&gt;&lt;li&gt;metal lb ip x tenant kub (da .65-.89)&lt;/li&gt;&lt;li&gt;yaki&lt;/li&gt;&lt;li&gt;https://kamaji.clastix.io/getting-started/getting-started/#create-tenant-cluster&lt;/li&gt;&lt;/ul&gt;" style="text;html=1;align=left;verticalAlign=top;whiteSpace=wrap;rounded=0;" vertex="1" parent="1">
          <mxGeometry x="270" y="600" width="530" height="190" as="geometry" />
        </mxCell>
        <mxCell id="FykFyGAP03CBxtwc1oIk-19" style="edgeStyle=orthogonalEdgeStyle;rounded=0;orthogonalLoop=1;jettySize=auto;html=1;" edge="1" parent="1" source="FykFyGAP03CBxtwc1oIk-17" target="FykFyGAP03CBxtwc1oIk-2">
          <mxGeometry relative="1" as="geometry">
            <Array as="points">
              <mxPoint x="230" y="430" />
              <mxPoint x="230" y="263" />
            </Array>
          </mxGeometry>
        </mxCell>
        <mxCell id="FykFyGAP03CBxtwc1oIk-24" style="edgeStyle=orthogonalEdgeStyle;rounded=0;orthogonalLoop=1;jettySize=auto;html=1;" edge="1" parent="1" source="FykFyGAP03CBxtwc1oIk-9" target="FykFyGAP03CBxtwc1oIk-12">
          <mxGeometry relative="1" as="geometry">
            <Array as="points">
              <mxPoint x="30" y="40" />
              <mxPoint x="760" y="40" />
            </Array>
          </mxGeometry>
        </mxCell>
        <mxCell id="FykFyGAP03CBxtwc1oIk-29" value="3) Join&lt;span style=&quot;background-color: transparent; color: light-dark(rgb(0, 0, 0), rgb(255, 255, 255));&quot;&gt;&amp;nbsp;VM Worker&lt;/span&gt;" style="text;html=1;align=left;verticalAlign=middle;whiteSpace=wrap;rounded=0;fontStyle=1" vertex="1" parent="1">
          <mxGeometry x="40" y="120" width="130" height="30" as="geometry" />
        </mxCell>
      </root>
    </mxGraphModel>
  </diagram>
</mxfile>
